<svg width="20" height="18" viewBox="0 0 20 18" fill="none" xmlns="http://www.w3.org/2000/svg">
<path d="M14.8396 2.79645C15.2192 2.79645 15.533 3.0786 15.5827 3.44467L15.5896 3.54645L15.5894 15.3465L18.3857 12.539C18.6779 12.2454 19.1528 12.2443 19.4463 12.5366C19.7132 12.8022 19.7384 13.2188 19.5212 13.5129L19.4488 13.5972L15.371 17.6939C15.3464 17.718 15.3214 17.7399 15.295 17.7601L15.371 17.6939C15.3342 17.7308 15.2945 17.7632 15.2527 17.7909C15.2381 17.7999 15.2229 17.8092 15.2074 17.818C15.193 17.8267 15.1783 17.8343 15.1635 17.8414C15.1488 17.8479 15.134 17.8544 15.1189 17.8605C15.0997 17.8687 15.08 17.8756 15.0602 17.8817C15.0484 17.8849 15.0364 17.8882 15.0243 17.8913C15.0027 17.8972 14.981 17.9017 14.9592 17.9052C14.9489 17.9064 14.9382 17.9079 14.9274 17.9091C14.9028 17.9125 14.8784 17.9142 14.8539 17.9146C14.8491 17.9142 14.8443 17.9142 14.8396 17.9142L14.8249 17.9146C14.8005 17.9142 14.7761 17.9125 14.7518 17.9097L14.8396 17.9142C14.7987 17.9142 14.7586 17.911 14.7195 17.9047C14.6979 17.9017 14.6762 17.8972 14.6547 17.8918C14.6433 17.8884 14.6319 17.8852 14.6206 17.8818C14.5991 17.8758 14.5778 17.8682 14.5567 17.8597C14.5452 17.8544 14.5341 17.8495 14.5231 17.8444C14.5058 17.837 14.4885 17.8281 14.4715 17.8185C14.4561 17.8092 14.441 17.7999 14.4262 17.7902C14.4147 17.7832 14.4033 17.7752 14.3921 17.7669L14.3841 17.7601C14.3577 17.7399 14.3327 17.718 14.3092 17.6946L14.3079 17.6939L10.2301 13.5972C9.9379 13.3036 9.93899 12.8288 10.2326 12.5366C10.4994 12.2709 10.9162 12.2477 11.2093 12.4662L11.2932 12.539L14.0894 15.3485L14.0896 3.54645C14.0896 3.13223 14.4253 2.79645 14.8396 2.79645ZM4.91111 0.08289L4.92572 0.0824738C4.95016 0.0829433 4.97458 0.0846003 4.99889 0.0874447L4.91111 0.08289C4.95197 0.08289 4.99206 0.0861572 5.03115 0.0924444C5.05252 0.0953661 5.07398 0.0997821 5.09525 0.105143C5.10776 0.108812 5.12051 0.11239 5.13311 0.116292C5.15281 0.121844 5.17187 0.128592 5.19068 0.136134C5.20429 0.14219 5.21806 0.14821 5.23161 0.154624C5.24771 0.161588 5.26357 0.169782 5.27918 0.17858C5.29255 0.186811 5.30579 0.194829 5.31875 0.203236C5.33208 0.211165 5.34544 0.220445 5.35854 0.230208L5.44277 0.303231L9.52055 4.3999C9.81277 4.69347 9.81167 5.16834 9.5181 5.46056C9.25122 5.72621 8.8345 5.74945 8.54139 5.53092L8.45744 5.4581L5.66044 2.64747L5.66111 14.4507C5.66111 14.8649 5.32532 15.2007 4.91111 15.2007C4.53141 15.2007 4.21762 14.9185 4.16796 14.5524L4.16111 14.4507L4.16044 2.64847L1.365 5.4581C1.09935 5.72499 0.68274 5.75015 0.388625 5.53298L0.304339 5.46056C0.0374584 5.1949 0.0122896 4.7783 0.229465 4.48418L0.301889 4.3999L4.37967 0.303231L4.42383 0.262734C4.4342 0.253862 4.44481 0.245269 4.45566 0.236964L4.37967 0.303231C4.41646 0.26627 4.45614 0.233946 4.49799 0.206262C4.51259 0.197165 4.52777 0.187879 4.54328 0.179129C4.55769 0.170444 4.57234 0.162824 4.58718 0.15572C4.60182 0.149238 4.61668 0.142698 4.63178 0.136635C4.65096 0.128431 4.67063 0.121486 4.69051 0.115385C4.70261 0.112137 4.71499 0.108675 4.72751 0.105527C4.74765 0.0999927 4.76802 0.0957621 4.7885 0.0923834C4.80082 0.0908428 4.81289 0.0891629 4.82505 0.0877738C4.8482 0.0845932 4.87195 0.0829818 4.89572 0.0824936C4.90097 0.0829405 4.90603 0.08289 4.91111 0.08289Z" fill="black"/>
</svg>
