<svg width="17" height="15" viewBox="0 0 17 15" fill="none" xmlns="http://www.w3.org/2000/svg">
<path d="M0 7.72569C0 7.34599 0.282154 7.0322 0.648229 6.98254L0.75 6.97569L13.934 6.97629L9.17101 2.23276C8.87749 1.9405 8.87647 1.46563 9.16873 1.1721C9.43442 0.905264 9.85103 0.88016 10.1451 1.09738L10.2294 1.16982L16.2794 7.19382C16.3181 7.23234 16.3517 7.27404 16.3802 7.31807C16.3883 7.33132 16.3965 7.34488 16.4042 7.35871C16.4114 7.37057 16.4178 7.38288 16.4239 7.39532C16.4324 7.41343 16.4407 7.43214 16.4482 7.45123C16.4543 7.46595 16.4594 7.48027 16.464 7.4947C16.4696 7.51259 16.4749 7.53166 16.4796 7.55102C16.483 7.56454 16.4857 7.57754 16.4881 7.5906C16.4914 7.61004 16.4943 7.63014 16.4963 7.65049C16.498 7.66601 16.4991 7.68138 16.4997 7.69677C16.4998 7.70611 16.5 7.71588 16.5 7.72569L16.4996 7.75474C16.4991 7.76946 16.498 7.78417 16.4966 7.79884L16.5 7.72569C16.5 7.77302 16.4956 7.81932 16.4872 7.86422C16.4853 7.87494 16.483 7.88595 16.4804 7.89691C16.4751 7.91949 16.4689 7.94123 16.4618 7.96255C16.4584 7.97314 16.4543 7.98445 16.45 7.99568C16.4412 8.01825 16.4317 8.03976 16.4212 8.06072C16.4163 8.07057 16.4109 8.08089 16.4052 8.0911C16.3958 8.10776 16.3861 8.12359 16.3759 8.13902C16.3687 8.14994 16.3607 8.1613 16.3524 8.17249L16.3459 8.18114C16.3257 8.20753 16.3038 8.23255 16.2803 8.25602L16.2794 8.25672L10.2294 14.2817C9.93593 14.574 9.46106 14.573 9.16877 14.2795C8.90306 14.0127 8.87971 13.596 9.09818 13.3028L9.17097 13.2189L13.932 8.47629L0.75 8.47569C0.335786 8.47569 0 8.1399 0 7.72569Z" fill="black"/>
</svg>
