<svg width="24" height="24" viewBox="0 0 24 24" fill="none" xmlns="http://www.w3.org/2000/svg">
<path d="M7.60059 15.0739L10.2904 8.92578L13.0576 15.0739" stroke="black" stroke-width="1.5" stroke-linecap="round" stroke-linejoin="round"/>
<path d="M8.32129 13.4922H12.3368" stroke="black" stroke-width="1.5"/>
<path d="M16.0244 15.0723V9.15039" stroke="black" stroke-width="1.5" stroke-linecap="round" stroke-linejoin="round"/>
<path d="M12 3C7.02944 3 3 7.02944 3 12C3 13.4201 3.32891 14.7634 3.9147 15.9578C4.43146 17.0333 3.93662 18.2125 3.67471 19.2914C3.52546 19.883 4.11717 20.4747 4.70879 20.3254C5.78685 20.0535 6.96586 19.5682 8.04233 20.0855C9.23677 20.6712 10.58 21.0001 12.0001 21.0001C16.9707 21.0001 21.0001 16.9707 21.0001 12.0001C21.0001 10.8703 20.7919 9.78902 20.4118 8.79267" stroke="black" stroke-width="1.5" stroke-linecap="round" stroke-linejoin="round"/>
<path d="M17.63 7.25998C17.32 7.25998 17.04 7.05999 16.93 6.76999L16.82 6.47001C16.47 5.53001 15.73 4.79001 14.8 4.44001L14.49 4.32999C14.2 4.21999 14 3.94001 14 3.63001C14 3.32001 14.2 3.04 14.49 2.93L14.79 2.81998C15.73 2.46998 16.47 1.72998 16.81 0.78998L16.92 0.48999C17.03 0.19999 17.31 0 17.62 0C17.93 0 18.21 0.19999 18.32 0.48999L18.43 0.78998C18.78 1.72998 19.52 2.46998 20.45 2.81998L20.75 2.93C21.04 3.04 21.24 3.32001 21.24 3.63001C21.24 3.94001 21.05 4.21999 20.75 4.32999L20.45 4.44001C19.51 4.79001 18.77 5.53001 18.42 6.47001L18.31 6.76999C18.2 7.05999 17.92 7.25998 17.61 7.25998H17.63ZM16.43 3.63001C16.89 3.96001 17.3 4.35999 17.62 4.82999C17.95 4.36999 18.35 3.96001 18.81 3.63001C18.35 3.30001 17.94 2.9 17.62 2.43C17.29 2.89 16.89 3.30001 16.43 3.63001Z" fill="black"/>
</svg>
