<svg width="24" height="24" viewBox="0 0 24 24" fill="none" xmlns="http://www.w3.org/2000/svg">
<path d="M12.0312 18.0664L12.0332 18.0764" stroke="black" stroke-width="1.5" stroke-linecap="round" stroke-linejoin="round"/>
<path d="M12.0312 12.6875L12.0332 12.6975" stroke="black" stroke-width="1.5" stroke-linecap="round" stroke-linejoin="round"/>
<path d="M12.0312 15.4062L12.0332 15.4162" stroke="black" stroke-width="1.5" stroke-linecap="round" stroke-linejoin="round"/>
<path d="M15.8086 18.0664L15.8105 18.0764" stroke="black" stroke-width="1.5" stroke-linecap="round" stroke-linejoin="round"/>
<path d="M15.8086 12.6875L15.8105 12.6975" stroke="black" stroke-width="1.5" stroke-linecap="round" stroke-linejoin="round"/>
<path d="M15.8086 15.4062L15.8105 15.4162" stroke="black" stroke-width="1.5" stroke-linecap="round" stroke-linejoin="round"/>
<path d="M3.95215 21H20.9899" stroke="black" stroke-width="1.5" stroke-linecap="round" stroke-linejoin="round"/>
<path d="M19.5852 20.9981V11.0698C19.5852 9.97622 18.6988 9.08984 17.6052 9.08984H10.2534C9.15982 9.08984 8.27344 9.97622 8.27344 11.0698V20.9981" stroke="black" stroke-width="1.5" stroke-linecap="round" stroke-linejoin="round"/>
<path d="M11.0155 6.17188L11.0165 6.18187M8.19922 6.17188L8.20019 6.18187" stroke="black" stroke-width="1.5" stroke-linecap="round" stroke-linejoin="round"/>
<path d="M5.35449 20.9971V4.98097C5.35449 3.88541 6.24087 3 7.33644 3H11.9483C13.0439 3 13.9303 3.88541 13.9303 4.98097V9.08886" stroke="black" stroke-width="1.5" stroke-linecap="round" stroke-linejoin="round"/>
</svg>
