<svg width="24" height="24" viewBox="0 0 24 24" fill="none" xmlns="http://www.w3.org/2000/svg">
<path d="M12.144 6.19429L14.6426 6.17969C16.0748 6.17677 17.2365 7.34045 17.2307 8.77266L17.2268 9.78455C17.221 11.207 16.066 12.3581 14.6426 12.3581H8.50022C7.07288 12.3581 5.91602 13.5149 5.91602 14.9413V15.9376C5.91602 17.365 7.07482 18.5218 8.50217 18.5208L12.1528 18.516" stroke="black" stroke-width="1.5" stroke-linecap="round" stroke-linejoin="round"/>
<path fill-rule="evenodd" clip-rule="evenodd" d="M6.76959 9.28636C6.34927 9.28636 4.14062 7.49901 4.14062 5.62799C4.14062 4.17632 5.31792 3 6.76959 3C8.22126 3 9.39855 4.17632 9.39855 5.62799C9.39855 7.49901 7.18991 9.28636 6.76959 9.28636Z" stroke="black" stroke-width="1.5" stroke-linecap="round" stroke-linejoin="round"/>
<path d="M6.77066 5.64022V5.60617" stroke="black" stroke-width="1.5" stroke-linecap="round" stroke-linejoin="round"/>
<path fill-rule="evenodd" clip-rule="evenodd" d="M17.2305 21.0012C16.8102 21.0012 14.6016 19.2139 14.6016 17.3428C14.6016 15.8912 15.7789 14.7148 17.2305 14.7148C18.6822 14.7148 19.8595 15.8912 19.8595 17.3428C19.8595 19.2139 17.6508 21.0012 17.2305 21.0012Z" stroke="black" stroke-width="1.5" stroke-linecap="round" stroke-linejoin="round"/>
<path d="M17.2296 17.3551V17.321" stroke="black" stroke-width="1.5" stroke-linecap="round" stroke-linejoin="round"/>
</svg>
