<svg width="23" height="24" viewBox="0 0 23 24" fill="none" xmlns="http://www.w3.org/2000/svg">
<path d="M4.95252 6.90204L4.0997 13.2037C4.03126 13.6936 4.06845 14.1922 4.20911 14.6664C4.34977 15.1408 4.59057 15.5792 4.91499 15.9522C5.2394 16.3253 5.63994 16.6244 6.08961 16.829C6.5393 17.0336 7.02762 17.1388 7.52152 17.1381H15.9591C16.4525 17.1373 16.9398 17.0304 17.3887 16.8254C17.8376 16.6203 18.2378 16.3213 18.562 15.9486C18.8861 15.5759 19.1266 15.1382 19.2679 14.6646C19.4091 14.191 19.4477 13.6934 19.3809 13.2037L18.5185 6.90204C18.4053 6.07298 17.9966 5.31213 17.3677 4.76147C16.7386 4.21081 15.932 3.90714 15.0966 3.90579H8.41188C7.57011 3.89802 6.75437 4.19805 6.11754 4.74955C5.48072 5.30104 5.06656 6.06655 4.95252 6.90204Z" stroke="black" stroke-width="1.5" stroke-linecap="round" stroke-linejoin="round"/>
<path d="M7.56804 17.1379L4.80243 21.1856" stroke="black" stroke-width="1.5" stroke-linecap="round" stroke-linejoin="round"/>
<path d="M15.8841 17.1379L18.6497 21.1856" stroke="black" stroke-width="1.5" stroke-linecap="round" stroke-linejoin="round"/>
<path d="M17.7023 19.7958H5.74906" stroke="black" stroke-width="1.5" stroke-linecap="round" stroke-linejoin="round"/>
<path d="M7.74669 3.96161L9.39694 9.75602C9.48419 10.0053 9.6462 10.222 9.86116 10.375C10.076 10.5282 10.333 10.6101 10.5968 10.6108H12.8467C13.1104 10.6101 13.3674 10.5282 13.5823 10.375C13.7972 10.222 13.9597 10.0053 14.047 9.75602L15.6967 3.96161" stroke="black" stroke-width="1.5" stroke-linecap="round" stroke-linejoin="round"/>
<path d="M15.525 13.6064V13.6525M8.12199 13.6064V13.6525M8.30841 13.6163C8.30841 13.72 8.2244 13.8041 8.12085 13.8041C8.01729 13.8041 7.93339 13.72 7.93339 13.6163C7.93339 13.5125 8.01729 13.4284 8.12085 13.4284C8.2244 13.4284 8.30841 13.5125 8.30841 13.6163ZM15.7059 13.6163C15.7059 13.72 15.6219 13.8041 15.5184 13.8041C15.4148 13.8041 15.3309 13.72 15.3309 13.6163C15.3309 13.5125 15.4148 13.4284 15.5184 13.4284C15.6219 13.4284 15.7059 13.5125 15.7059 13.6163Z" stroke="black" stroke-width="1.5" stroke-linecap="round" stroke-linejoin="round"/>
</svg>
